inDegrees=no
num_controls=7
num_derivatives=13
num_iterations=132
num_multipliers=7
num_parameters=0
num_slacks=7
num_states=26
objective=5.251085
objective_accelerations=0.612258
objective_balance=0.038417
objective_effort=0.589091
objective_height=3.940492
objective_ligament=0.070827
solver_duration=1429.614817
status=Solve_Succeeded
success=true
DataType=double
version=3
OpenSimVersion=4.4-2022-07-23-0e9fedc
endheader
time	/jointset/ground_pelvis/pelvis_tilt/value	/jointset/ground_pelvis/pelvis_tx/value	/jointset/ground_pelvis/pelvis_ty/value	/jointset/hip_l/hip_flexion_l/value	/jointset/hip_l/hip_adduction_l/value	/jointset/hip_l/hip_rotation_l/value	/jointset/back/lumbar_extension/value	/jointset/patellofemoral_l/patellar_flexion_l/value	/jointset/knee_l/knee_flexion_l/value	/jointset/knee_l/knee_adduction_l/value	/jointset/knee_l/knee_rotation_l/value	/jointset/ankle_l/ankle_angle_l/value	/jointset/subtalar_l/subtalar_angle_l/value	/jointset/ground_pelvis/pelvis_tilt/speed	/jointset/ground_pelvis/pelvis_tx/speed	/jointset/ground_pelvis/pelvis_ty/speed	/jointset/hip_l/hip_flexion_l/speed	/jointset/hip_l/hip_adduction_l/speed	/jointset/hip_l/hip_rotation_l/speed	/jointset/back/lumbar_extension/speed	/jointset/patellofemoral_l/patellar_flexion_l/speed	/jointset/knee_l/knee_flexion_l/speed	/jointset/knee_l/knee_adduction_l/speed	/jointset/knee_l/knee_rotation_l/speed	/jointset/ankle_l/ankle_angle_l/speed	/jointset/subtalar_l/subtalar_angle_l/speed	/forceset/tau_hip_flexion_l	/forceset/tau_hip_adduction_l	/forceset/tau_hip_rotation_l	/forceset/tau_knee_flexion_l	/forceset/tau_ankle_angle_l	/forceset/tau_subtalar_angle_l	/forceset/tau_lumbar_extension	lambda_cid13_p0	lambda_cid13_p1	lambda_cid13_p2	lambda_cid13_p3	lambda_cid13_p4	lambda_cid13_p5	lambda_cid14_p0	/jointset/ground_pelvis/pelvis_tilt/accel	/jointset/ground_pelvis/pelvis_tx/accel	/jointset/ground_pelvis/pelvis_ty/accel	/jointset/hip_l/hip_flexion_l/accel	/jointset/hip_l/hip_adduction_l/accel	/jointset/hip_l/hip_rotation_l/accel	/jointset/back/lumbar_extension/accel	/jointset/patellofemoral_l/patellar_flexion_l/accel	/jointset/knee_l/knee_flexion_l/accel	/jointset/knee_l/knee_adduction_l/accel	/jointset/knee_l/knee_rotation_l/accel	/jointset/ankle_l/ankle_angle_l/accel	/jointset/subtalar_l/subtalar_angle_l/accel	gamma_cid13_p0	gamma_cid13_p1	gamma_cid13_p2	gamma_cid13_p3	gamma_cid13_p4	gamma_cid13_p5	gamma_cid14_p0
0.5	-0.1311519981079009	-0.05904386501823629	0.765831654221739	1.102283009280622	-0.3207073503328469	-0.05746897613514979	-0.8055695091707006	1.067251913321944	1.067251913322015	-0.05395587303899199	-0.1744881664127225	0.1736508883085476	0.03281532742363187	-0.1967949406731823	-0.1648854621860942	-0.5806082479324319	2.046517539021437	-0.002079352217161196	0.5719162975428033	-0.816857756273756	2.169051470604086	2.169051470603441	0.2869523490382443	6.818304250823931e-05	0.4677263873191767	0.1697047967027325	-0.2997567679825151	0.01144083264414537	-0.007898867127606984	-0.2724114738670232	0.100432664750486	0.04620529579417608	0.3463295748181461	-11.18930979526256	-18.48143713306966	2.918930790909011	-14.15051466741719	-697.8176805967361	-73.78396301929115	-4.16284796819017	0.585674223586738	0.8770294791244984	-0.3204376048689695	-1.762627401766155	0.302084247232676	-0.7020386168806216	2.145405059663856	-1.653090582958071	-1.65309058295796	-0.1680939660484451	0.009152204563849591	-0.5860082025372207	0.2450450752921087	-2.249955797503483e-07	-8.410159102886922e-07	8.240833971453518e-07	-2.124213601729103e-08	-2.764438000178366e-07	-9.577547160498975e-08	-2.189759587712031e-07
0.51	-0.1330903785100192	-0.06064892062511639	0.7600108749462872	1.122657264796698	-0.3207138417029055	-0.05178615626827945	-0.8136302232502416	1.08885647834846	1.088856478348486	-0.05109548990676741	-0.1744883260563497	0.1782976273068763	0.03452326870094976	-0.1908509012003329	-0.1561308869818228	-0.5834131604929941	2.028065210282639	0.0007585648255825938	0.5646405772766201	-0.7952250030673987	2.151555769917549	2.151555769917166	0.2850589563982156	-8.146555630516009e-05	0.4615328640180713	0.1718258323055215	-0.3068471611885855	0.01116090561714783	-0.007721236340590275	-0.2777356280116738	0.1000744717382642	0.04575939123024993	0.3533223976565429	-11.68018846760871	-18.06732731849971	2.699274559682934	-13.92317924347641	-703.8583073072973	-73.62715652442525	-3.512389090885246	0.6032921711149266	0.873853563943327	-0.240385498830904	-1.926801207205489	0.2713888372488801	-0.7415448282384784	2.181218936289904	-1.843645672714888	-1.843645672675827	-0.2099542375782161	-0.02425920558758122	-0.6493634720351259	0.1871910864588527	-1.238289036967302e-07	-1.12609842591939e-06	-1.296550284485804e-07	-1.674838705432823e-07	-1.6614069806725e-07	-2.914553026032916e-07	-1.439455345847153e-07
0.52	-0.1349684138450084	-0.06216659407538234	0.7541660730617951	1.142838943905933	-0.3206926052216414	-0.04617633482343408	-0.821472808100683	1.110276919195861	1.110276919195861	-0.04825603916585545	-0.1744894293486305	0.1828797632565667	0.03625073199103288	-0.1847259272482244	-0.1474090308632634	-0.5854127697407157	2.008002257653065	0.003466218046474103	0.5573166131403919	-0.7732319104542641	2.132226634782492	2.13222663478237	0.2827658707742588	-0.0001205466944643243	0.4548057775914612	0.1736091992557798	-0.3139375543946583	0.01088097859012867	-0.007543605553300532	-0.2830597821563077	0.09971627872604644	0.0453134866662951	0.3603152204949407	-12.17264892537387	-17.65656992315404	2.484297808270598	-13.7477918679119	-709.9388959855663	-73.50329293486394	-2.917348732243333	0.6218611194388266	0.8704856619818399	-0.1593769423008772	-2.084752179921328	0.2760314828623243	-0.7116873908895071	2.217472941019476	-2.019777472661876	-2.019777472661882	-0.2480325628340437	0.03126569669479676	-0.6927208276384809	0.1775113447859077	-1.21126610369451e-07	-1.073499293783909e-06	-9.364667178367334e-08	-1.643428487541076e-07	-1.541330006063583e-07	-2.631914213868508e-07	-1.432718875022707e-07
0.53	-0.1367843110123841	-0.0635972899477123	0.7483053010362188	1.16281213930245	-0.3206448714167543	-0.04064042714693272	-0.8290937202241218	1.131495205427778	1.131495205427742	-0.04544090657508257	-0.1744905754075107	0.1873921583761259	0.0379944753257762	-0.1784230207997503	-0.1387429422094931	-0.5866064316272348	1.986380143614537	0.00606491433980723	0.5497960682508759	-0.7508987919275512	2.111147843725241	2.111147843725273	0.2802658192445597	-0.0001161901543315158	0.4476019005829098	0.1750952434800929	-0.321002185096685	0.01064682769195949	-0.007416594217311925	-0.2880953571989492	0.09880761347552944	0.04480716376676264	0.3671875860666279	-12.8434140906541	-17.19040842146462	2.262836419385246	-13.34954818825109	-715.912824156752	-73.28529375381761	-2.37748020493899	0.6390647384654856	0.8627181367886169	-0.07910981506587902	-2.239455979684092	0.2495412398424514	-0.7827066792149636	2.248989654514078	-2.194316519860001	-2.194316519837087	-0.2503931767229988	-0.01612730855459911	-0.744974602354169	0.1276939216795085	-1.266778013089206e-07	-9.677267804564722e-07	5.829725990082136e-08	-1.417864964816047e-07	-1.522145696057431e-07	-1.888731291054183e-07	-1.495400261666187e-07
